<svg xmlns="http://www.w3.org/2000/svg" xmlns:xlink="http://www.w3.org/1999/xlink" viewBox="0 0 24 24" width="24px" height="24px">
<g id="surface38048901">
<path style=" stroke:none;fill-rule:nonzero;fill:rgb(100%,3.137255%,75.686276%);fill-opacity:1;" d="M 19.980469 5.691406 C 18.300781 4.351562 15.898438 3.980469 14.859375 3.871094 L 14.820312 3.871094 C 14.660156 3.871094 14.511719 3.960938 14.460938 4.109375 C 14.371094 4.339844 14.511719 4.589844 14.738281 4.628906 C 15.910156 4.871094 17.261719 5.289062 18.488281 6.058594 C 18.738281 6.210938 18.800781 6.550781 18.601562 6.78125 C 18.441406 6.960938 18.171875 6.980469 17.960938 6.859375 C 15.558594 5.378906 12.578125 5.300781 12 5.300781 C 11.421875 5.300781 8.441406 5.378906 6.039062 6.859375 C 5.828125 6.980469 5.558594 6.960938 5.398438 6.78125 C 5.199219 6.550781 5.261719 6.210938 5.511719 6.058594 C 6.738281 5.289062 8.089844 4.871094 9.261719 4.628906 C 9.488281 4.589844 9.628906 4.339844 9.539062 4.109375 C 9.488281 3.960938 9.339844 3.871094 9.179688 3.871094 L 9.140625 3.871094 C 8.101562 3.980469 5.699219 4.351562 4.019531 5.691406 C 3.039062 6.601562 1.089844 11.828125 1 16.460938 C 1 16.769531 1.078125 17.078125 1.261719 17.328125 C 2.429688 18.980469 4.96875 19.96875 6.890625 20.109375 C 7.179688 20.128906 7.460938 20 7.628906 19.761719 C 7.640625 19.761719 7.640625 19.75 7.648438 19.738281 C 8 19.261719 7.789062 18.578125 7.230469 18.371094 C 5.628906 17.78125 4.808594 17.078125 4.761719 17.03125 C 4.558594 16.851562 4.539062 16.550781 4.710938 16.351562 C 4.890625 16.148438 5.191406 16.128906 5.390625 16.308594 C 5.421875 16.328125 7.640625 18.21875 12 18.21875 C 16.359375 18.21875 18.578125 16.328125 18.609375 16.308594 C 18.808594 16.128906 19.109375 16.148438 19.289062 16.351562 C 19.460938 16.550781 19.441406 16.851562 19.238281 17.03125 C 19.191406 17.078125 18.371094 17.78125 16.769531 18.371094 C 16.210938 18.578125 16 19.261719 16.351562 19.738281 C 16.359375 19.75 16.359375 19.761719 16.371094 19.761719 C 16.539062 20 16.820312 20.128906 17.109375 20.109375 C 19.03125 19.96875 21.570312 18.980469 22.738281 17.328125 C 22.921875 17.078125 23 16.769531 23 16.460938 C 22.910156 11.828125 20.960938 6.601562 19.980469 5.691406 Z M 8.890625 14.871094 C 7.96875 14.871094 7.21875 14.011719 7.21875 12.960938 C 7.21875 11.898438 7.96875 11.039062 8.890625 11.039062 C 9.820312 11.039062 10.558594 11.898438 10.558594 12.960938 C 10.558594 14.011719 9.820312 14.871094 8.890625 14.871094 Z M 15.109375 14.871094 C 14.179688 14.871094 13.441406 14.011719 13.441406 12.960938 C 13.441406 11.898438 14.179688 11.039062 15.109375 11.039062 C 16.03125 11.039062 16.78125 11.898438 16.78125 12.960938 C 16.78125 14.011719 16.03125 14.871094 15.109375 14.871094 Z M 15.109375 14.871094 "/>
</g>
</svg>
