<?xml version="1.0" encoding="UTF-8"?>
<svg xmlns="http://www.w3.org/2000/svg" xmlns:xlink="http://www.w3.org/1999/xlink" viewBox="0 0 48 48" width="48px" height="48px">
<g id="surface38211885">
<path style=" stroke:none;fill-rule:nonzero;fill:rgb(100%,3.137255%,75.686276%);fill-opacity:1;" d="M 24 7.5 C 33.113281 7.5 40.5 14.886719 40.5 24 C 40.5 33.113281 33.113281 40.5 24 40.5 C 14.886719 40.5 7.5 33.113281 7.5 24 C 7.5 14.886719 14.886719 7.5 24 7.5 Z M 29.691406 30.726562 C 29.996094 29.796875 31.417969 20.515625 31.59375 18.683594 C 31.644531 18.132812 31.46875 17.765625 31.128906 17.597656 C 30.714844 17.398438 30.101562 17.5 29.386719 17.757812 C 28.410156 18.109375 15.917969 23.410156 15.195312 23.71875 C 14.511719 24.011719 13.867188 24.328125 13.867188 24.785156 C 13.867188 25.109375 14.058594 25.292969 14.585938 25.480469 C 15.132812 25.675781 16.519531 26.09375 17.335938 26.320312 C 18.125 26.539062 19.019531 26.347656 19.519531 26.035156 C 20.054688 25.707031 26.195312 21.597656 26.636719 21.234375 C 27.078125 20.875 27.429688 21.335938 27.070312 21.699219 C 26.710938 22.058594 22.492188 26.148438 21.9375 26.71875 C 21.261719 27.40625 21.738281 28.117188 22.191406 28.402344 C 22.710938 28.730469 26.429688 31.226562 26.992188 31.625 C 27.550781 32.027344 28.117188 32.207031 28.640625 32.207031 C 29.160156 32.207031 29.433594 31.519531 29.691406 30.726562 Z M 29.691406 30.726562 "/>
</g>
</svg>
